<svg width="84" height="67" viewBox="0 0 84 67" fill="none" xmlns="http://www.w3.org/2000/svg">
<path d="M55.4392 22.7315H51.914V16.2648C51.914 15.5047 51.7714 14.9544 51.4976 14.6084C51.2238 14.2624 50.8588 14.0922 50.4195 14.0922C50.1857 14.0922 49.9461 14.1433 49.7008 14.2454C49.4612 14.3475 49.2331 14.4893 49.0277 14.6708C48.8224 14.8523 48.6341 15.0679 48.463 15.3175C48.2919 15.5671 48.1607 15.8393 48.058 16.1286V22.7258H44.5328V16.2591C44.5328 15.499 44.3902 14.9488 44.1164 14.6027C43.8426 14.2567 43.4775 14.0865 43.0383 14.0865C42.5649 14.0865 42.1085 14.2737 41.6579 14.6481C41.2073 15.0225 40.8821 15.516 40.6768 16.1286V22.7258H37.1516V11.2219H40.3231V13.1506C40.751 12.4472 41.3271 11.9139 42.0515 11.5509C42.7816 11.1879 43.6259 11.0007 44.5956 11.0007C45.0804 11.0007 45.5025 11.0574 45.8619 11.1765C46.2213 11.2956 46.535 11.4545 46.7974 11.6587C47.0598 11.8629 47.2765 12.1011 47.4362 12.3678C47.596 12.64 47.7157 12.9293 47.7899 13.2356C48.2291 12.5209 48.811 11.9707 49.5297 11.5793C50.2484 11.1935 51.0698 11.0007 51.9996 11.0007C52.7354 11.0007 53.323 11.1368 53.7736 11.4034C54.2242 11.6757 54.5722 12.0217 54.8174 12.4528C55.0684 12.884 55.2339 13.3548 55.3137 13.8653C55.3936 14.3758 55.4335 14.875 55.4335 15.3572V22.7201L55.4392 22.7315Z" fill="#18488C"/>
<path d="M63.2824 22.9527C62.3127 22.9527 61.44 22.7939 60.6699 22.4819C59.8998 22.1699 59.2438 21.7388 58.7077 21.1999C58.1715 20.661 57.7608 20.037 57.487 19.328C57.2075 18.6189 57.0706 17.8758 57.0706 17.1043C57.0706 16.2705 57.2132 15.4877 57.487 14.7502C57.7665 14.0128 58.1715 13.3661 58.6962 12.8102C59.2267 12.2543 59.877 11.8175 60.6471 11.4942C61.4171 11.1709 62.2956 11.012 63.2824 11.012C64.2692 11.012 65.142 11.1709 65.9063 11.4942C66.6707 11.8175 67.3153 12.2486 67.8458 12.7989C68.3762 13.3491 68.7755 13.9788 69.0493 14.6935C69.3231 15.4082 69.4543 16.1627 69.4543 16.9512C69.4543 17.1554 69.4486 17.3539 69.4315 17.5525C69.4144 17.751 69.3973 17.9212 69.3631 18.0687H60.8125C60.8695 18.8458 61.1547 19.4301 61.6624 19.8328C62.1701 20.2356 62.7462 20.4341 63.3908 20.4341C63.9042 20.4341 64.4004 20.3093 64.8796 20.0597C65.3587 19.8101 65.6782 19.4754 65.8379 19.05L68.8326 19.8839C68.3762 20.7915 67.6689 21.5289 66.7163 22.0962C65.7637 22.6634 64.6172 22.9527 63.2767 22.9527H63.2824ZM65.7295 15.8961C65.6553 15.1643 65.393 14.5914 64.9366 14.166C64.4803 13.7405 63.9156 13.5306 63.2425 13.5306C62.5694 13.5306 61.9819 13.7462 61.5369 14.1773C61.0863 14.6084 60.8296 15.1813 60.7555 15.8961H65.7352H65.7295Z" fill="#18488C"/>
<path d="M74.5653 22.9527C73.3732 22.9527 72.4776 22.584 71.8673 21.8466C71.2569 21.1091 70.9546 20.0257 70.9546 18.5905V11.2276H74.4798V17.8247C74.4798 18.5281 74.6167 19.0613 74.8962 19.4357C75.1757 19.8101 75.5693 19.9973 76.0883 19.9973C76.5561 19.9973 77.0124 19.8725 77.4573 19.6229C77.8966 19.3733 78.2845 18.9422 78.6267 18.3296V11.2276H82.1519V18.7891C82.1519 19.1408 82.2089 19.3847 82.3173 19.5208C82.4257 19.6626 82.6196 19.742 82.8991 19.7704V22.7315C82.5626 22.8052 82.2774 22.8506 82.0378 22.8733C81.8039 22.896 81.5872 22.9073 81.3989 22.9073C80.1326 22.9073 79.4139 22.4195 79.2371 21.4381L79.1686 20.7347C78.6381 21.4949 77.9821 22.0508 77.195 22.4138C76.4078 22.7712 75.5293 22.9527 74.5596 22.9527H74.5653Z" fill="#18488C"/>
<path d="M13.8786 42.8746C12.8917 42.8746 11.922 42.7158 10.9694 42.4038C10.0168 42.0918 9.20685 41.6324 8.54517 41.0311L9.80008 38.8812C10.5074 39.3633 11.1919 39.7377 11.8593 39.9987C12.5267 40.2596 13.1713 40.3957 13.7873 40.3957C14.2436 40.3957 14.5973 40.3163 14.8426 40.1575C15.0936 39.9987 15.2191 39.7604 15.2191 39.4541C15.2191 39.1478 15.0593 38.9039 14.7456 38.7224C14.4319 38.5408 13.8729 38.348 13.08 38.1438C12.2985 37.9225 11.6425 37.7126 11.1063 37.5084C10.5701 37.3042 10.1309 37.0773 9.79438 36.8277C9.45783 36.5781 9.21255 36.2945 9.06995 35.9712C8.92164 35.6478 8.84749 35.2678 8.84749 34.831C8.84749 34.2467 8.96728 33.7135 9.20115 33.2313C9.43502 32.7492 9.76016 32.3408 10.1709 32.0061C10.5816 31.6714 11.0721 31.4048 11.6368 31.2176C12.2015 31.0304 12.8176 30.934 13.4793 30.934C14.3463 30.934 15.1563 31.0531 15.915 31.2857C16.6736 31.5182 17.4038 31.9437 18.1054 32.5563L16.7364 34.6608C16.0747 34.207 15.4871 33.878 14.9738 33.6738C14.4604 33.4696 13.9584 33.3675 13.4736 33.3675C13.0914 33.3675 12.7663 33.4469 12.5039 33.6001C12.2415 33.7532 12.1046 33.9971 12.1046 34.3318C12.1046 34.6665 12.2472 34.8934 12.5324 35.0522C12.8176 35.2111 13.3481 35.3869 14.1296 35.5798C14.951 35.801 15.6469 36.0166 16.2116 36.2378C16.7763 36.459 17.2383 36.7029 17.592 36.9695C17.9457 37.2361 18.2023 37.5481 18.3621 37.8998C18.5218 38.2515 18.6073 38.6656 18.6073 39.1478C18.6073 40.288 18.1795 41.1956 17.3296 41.8649C16.4797 42.5343 15.3217 42.8746 13.8672 42.8746H13.8786Z" fill="#18488C"/>
<path d="M26.1711 42.8746C25.2014 42.8746 24.3286 42.7158 23.5586 42.4038C22.7885 42.0918 22.1325 41.6607 21.5963 41.1218C21.0601 40.5829 20.6494 39.959 20.3756 39.2499C20.0961 38.5408 19.9592 37.7977 19.9592 37.0263C19.9592 36.1924 20.1018 35.4096 20.3756 34.6722C20.6551 33.9347 21.0601 33.2881 21.5849 32.7322C22.1154 32.1762 22.7657 31.7395 23.5357 31.4161C24.3058 31.0928 25.1843 30.934 26.1711 30.934C27.1579 30.934 28.0306 31.0928 28.795 31.4161C29.5594 31.7395 30.2039 32.1706 30.7344 32.7208C31.2649 33.271 31.6642 33.9007 31.938 34.6154C32.2118 35.3302 32.343 36.0846 32.343 36.8731C32.343 37.0773 32.3373 37.2759 32.3202 37.4744C32.3031 37.6729 32.286 37.8431 32.2517 37.9906H23.7012C23.7582 38.7677 24.0434 39.352 24.5511 39.7548C25.0588 40.1575 25.6349 40.356 26.2795 40.356C26.7928 40.356 27.2891 40.2312 27.7682 39.9817C28.2474 39.7321 28.5668 39.3974 28.7265 38.9719L31.7212 39.8058C31.2649 40.7134 30.5576 41.4508 29.605 42.0181C28.6524 42.5853 27.5059 42.8746 26.1654 42.8746H26.1711ZM28.6182 35.818C28.544 35.0863 28.2816 34.5133 27.8253 34.0879C27.369 33.6625 26.8042 33.4526 26.1311 33.4526C25.4581 33.4526 24.8705 33.6681 24.4256 34.0992C23.975 34.5303 23.7183 35.1033 23.6441 35.818H28.6239H28.6182Z" fill="#18488C"/>
<path d="M38.7773 42.6988C38.013 42.6988 37.317 42.5456 36.6839 42.2393C36.0507 41.933 35.5145 41.5189 35.0639 40.9914C34.6133 40.4638 34.2653 39.8512 34.02 39.1478C33.769 38.4444 33.6436 37.6956 33.6436 36.8901C33.6436 36.0449 33.7748 35.2564 34.0428 34.536C34.3052 33.8099 34.676 33.186 35.1438 32.6527C35.6115 32.1195 36.1819 31.6998 36.8379 31.3934C37.4939 31.0871 38.224 30.934 39.0169 30.934C39.901 30.934 40.6654 31.1212 41.3214 31.4955C41.9774 31.8699 42.5021 32.3805 42.8957 33.0385V31.1552H45.9589V41.8706C45.9589 42.7442 45.7935 43.5383 45.4626 44.2361C45.1318 44.9338 44.6754 45.5351 44.0822 46.0229C43.4947 46.5107 42.7874 46.8908 41.966 47.1517C41.1445 47.4127 40.2376 47.5488 39.2565 47.5488C38.0073 47.5488 36.9406 47.3503 36.0621 46.9589C35.1837 46.5618 34.4079 45.9945 33.7462 45.2514L35.64 43.3455C36.0678 43.8276 36.5926 44.2134 37.2258 44.497C37.8589 44.7806 38.532 44.9224 39.2508 44.9224C39.6786 44.9224 40.0779 44.8657 40.46 44.7466C40.8422 44.6275 41.1788 44.4516 41.4754 44.2077C41.772 43.9638 42.0002 43.6518 42.1713 43.2661C42.3424 42.8803 42.4223 42.4152 42.4223 41.8763V40.7588C42.0686 41.3998 41.561 41.8876 40.8993 42.2166C40.2376 42.5456 39.5246 42.7101 38.7602 42.7101L38.7773 42.6988ZM39.9866 39.9136C40.5285 39.9136 41.0134 39.7661 41.4412 39.4655C41.869 39.1648 42.1998 38.7847 42.4337 38.3139V35.9031C42.1998 35.2905 41.8405 34.8026 41.3556 34.4453C40.8707 34.0879 40.3574 33.9064 39.8155 33.9064C39.4333 33.9064 39.0853 33.9915 38.7659 34.156C38.4522 34.3261 38.1784 34.553 37.9502 34.8367C37.722 35.1203 37.5452 35.4493 37.4197 35.8237C37.2942 36.1981 37.2315 36.5781 37.2315 36.9752C37.2315 37.4007 37.2999 37.7921 37.4425 38.1494C37.5794 38.5068 37.7734 38.8188 38.0244 39.0797C38.2753 39.3407 38.5663 39.5449 38.8971 39.6924C39.2279 39.8398 39.593 39.9136 39.9866 39.9136Z" fill="#18488C"/>
<path d="M52.2221 42.8746C51.0299 42.8746 50.1343 42.5059 49.524 41.7685C48.9136 41.0311 48.6113 39.9476 48.6113 38.5125V31.1495H52.1365V37.7467C52.1365 38.4501 52.2734 38.9833 52.5529 39.3577C52.8324 39.732 53.226 39.9192 53.7451 39.9192C54.2128 39.9192 54.6692 39.7944 55.1141 39.5449C55.5533 39.2953 55.9412 38.8642 56.2834 38.2515V31.1495H59.8086V38.711C59.8086 39.0627 59.8657 39.3066 59.9741 39.4428C60.0824 39.5846 60.2764 39.664 60.5559 39.6923V42.6534C60.2193 42.7271 59.9341 42.7725 59.6945 42.7952C59.4607 42.8179 59.2439 42.8293 59.0557 42.8293C57.7894 42.8293 57.0706 42.3414 56.8938 41.3601L56.8253 40.6567C56.2949 41.4168 55.6389 41.9727 54.8517 42.3357C54.0645 42.6931 53.1861 42.8746 52.2164 42.8746H52.2221Z" fill="#18488C"/>
<path d="M70.2016 34.156C69.3517 34.173 68.5759 34.3091 67.8857 34.5701C67.1955 34.831 66.6936 35.2281 66.3855 35.7556V42.6591H62.8604V31.1552H66.1003V33.4753C66.4996 32.6981 67.0073 32.0968 67.6347 31.6544C68.2565 31.2176 68.9239 30.9907 69.6312 30.9737H69.9849C70.059 30.9737 70.1332 30.9793 70.2073 30.9964V34.1503L70.2016 34.156Z" fill="#18488C"/>
<path d="M76.944 42.8746C75.9572 42.8746 75.0844 42.7158 74.3087 42.3925C73.5386 42.0691 72.8883 41.638 72.3578 41.0878C71.8274 40.5376 71.4281 39.9022 71.1543 39.1818C70.8805 38.4557 70.7493 37.7013 70.7493 36.9128C70.7493 36.1243 70.8862 35.3699 71.1543 34.6438C71.4281 33.9234 71.8274 33.2881 72.3578 32.7378C72.8883 32.1876 73.5386 31.7508 74.3087 31.4218C75.0787 31.0928 75.9572 30.9283 76.944 30.9283C77.9308 30.9283 78.8036 31.0928 79.5679 31.4218C80.3323 31.7508 80.9769 32.1876 81.5073 32.7378C82.0378 33.2881 82.4428 33.9234 82.7166 34.6438C82.9961 35.3699 83.133 36.1243 83.133 36.9128C83.133 37.7013 82.9961 38.4557 82.728 39.1818C82.4542 39.9022 82.0549 40.5376 81.5245 41.0878C80.994 41.638 80.3437 42.0691 79.5736 42.3925C78.8036 42.7158 77.9251 42.8746 76.9383 42.8746H76.944ZM74.3657 36.9128C74.3657 37.8204 74.611 38.5465 75.0958 39.0911C75.5807 39.6356 76.1968 39.9136 76.9497 39.9136C77.3148 39.9136 77.657 39.8398 77.9651 39.6924C78.2731 39.5449 78.5412 39.3407 78.7693 39.0797C78.9975 38.8188 79.1743 38.5011 79.3112 38.1267C79.4424 37.7523 79.5109 37.3496 79.5109 36.9128C79.5109 36.0052 79.2713 35.2791 78.7865 34.7346C78.3016 34.1843 77.6913 33.912 76.9554 33.912C76.5903 33.912 76.2481 33.9858 75.9287 34.1333C75.6092 34.2808 75.3411 34.485 75.113 34.7459C74.8848 35.0068 74.708 35.3245 74.5711 35.6989C74.4399 36.0733 74.3714 36.476 74.3714 36.9128H74.3657Z" fill="#18488C"/>
<path d="M27.5686 9.62225C26.6673 8.26085 25.5379 7.06394 24.2202 6.06557C23.028 5.16364 21.7104 4.45457 20.3014 3.95539C19.115 3.53562 17.8829 3.26901 16.6337 3.17258C16.3656 3.14989 16.337 2.98539 16.3428 2.8379V2.76983C16.3542 2.53726 16.3656 2.29334 16.3428 2.06076C16.3199 1.84521 16.2686 1.64667 16.1887 1.48784C16.0632 1.2269 15.818 1.07374 15.3959 1H15.3787C14.6087 1.20988 14.4319 1.44813 14.4319 2.27632C14.4319 2.32737 14.4319 2.3841 14.4319 2.44082C14.4319 2.55995 14.4319 2.6734 14.4319 2.78685C14.4547 3.03077 14.352 3.14989 14.0953 3.17825C13.6047 3.23498 13.0229 3.30872 12.4411 3.42217C10.2393 3.85896 8.20289 4.79493 6.38896 6.20739C4.71764 7.5064 3.37145 9.12307 2.39604 11.0177C1.72865 12.311 1.26661 13.6895 1.01563 15.1416C0.873021 15.9528 1.73435 16.5371 2.46449 16.157C3.28589 15.7316 4.21567 15.499 5.18538 15.499C6.91945 15.499 8.4881 16.2081 9.589 17.4504C9.96548 17.8758 10.6443 17.8928 11.015 17.4674C11.865 16.4974 12.9659 15.8677 14.3007 15.5898L14.4204 15.5671V24.5524C14.4204 25.0856 14.8597 25.5224 15.3959 25.5224C15.932 25.5224 16.3713 25.0856 16.3713 24.5524V15.5614L16.4911 15.5841C17.8487 15.8734 18.9324 16.4917 19.7824 17.4674C20.1531 17.8928 20.8376 17.8928 21.2027 17.4674C22.1952 16.3215 23.473 15.6692 25.0188 15.516C26.2224 15.3912 27.3233 15.6068 28.3215 16.1513C29.046 16.5427 29.9073 15.9641 29.7704 15.153C29.719 14.8637 29.662 14.58 29.5993 14.3021C29.2057 12.6287 28.5212 11.0517 27.5686 9.61091V9.62225ZM27.3119 13.7745C24.8306 13.264 22.566 13.8143 20.5752 15.4026L20.5182 15.4479L20.4555 15.4026C18.7727 14.183 17.0672 13.5647 15.3959 13.5647C13.7245 13.5647 12.019 14.183 10.3248 15.4026L10.2621 15.4479L10.2051 15.4026C8.22571 13.8143 5.94974 13.264 3.47413 13.7745L3.31441 13.8086L3.36004 13.6554C4.62067 9.4067 9.11556 5.07288 15.2704 5.00481H15.4073C21.8131 5.00481 26.1254 9.48611 27.4146 13.6554L27.4659 13.8143L27.3062 13.7802L27.3119 13.7745Z" fill="#18488C" stroke="#18488C" stroke-width="1.3" stroke-miterlimit="10"/>
<path d="M83.9999 52.4045H6.28052V54.1914H83.9999V52.4045Z" fill="#FF8000"/>
<path d="M45.1586 64.8361C44.6806 64.8361 44.2885 64.7244 43.9823 64.501C43.6783 64.2775 43.4668 63.9698 43.3479 63.5776C43.2289 63.1855 43.2113 62.7376 43.295 62.2337C43.3787 61.7211 43.5483 61.2688 43.8039 60.8767C44.0594 60.4824 44.3777 60.1746 44.7588 59.9533C45.1399 59.7299 45.5595 59.6182 46.0177 59.6182C46.3745 59.6182 46.6851 59.6839 46.9495 59.8153C47.2138 59.9468 47.4176 60.1308 47.5607 60.3674C47.7039 60.6039 47.7711 60.88 47.7623 61.1954H46.9825C46.9605 60.9654 46.8614 60.7617 46.6851 60.5842C46.5111 60.4046 46.2534 60.3148 45.9119 60.3148C45.608 60.3148 45.3282 60.3936 45.0727 60.5514C44.8172 60.7069 44.6024 60.927 44.4284 61.2118C44.2543 61.4944 44.1365 61.8263 44.0748 62.2074C44.0087 62.5974 44.0142 62.9369 44.0913 63.2261C44.1684 63.5152 44.3083 63.7397 44.511 63.8997C44.7136 64.0596 44.9691 64.1395 45.2775 64.1395C45.4802 64.1395 45.6696 64.1045 45.8459 64.0344C46.0221 63.9643 46.1785 63.8635 46.3151 63.7321C46.4516 63.6006 46.5596 63.4429 46.6389 63.2589H47.4187C47.3217 63.5568 47.1664 63.8252 46.9528 64.064C46.7391 64.3005 46.4803 64.4889 46.1763 64.6291C45.8723 64.7671 45.5331 64.8361 45.1586 64.8361Z" fill="#FF8000"/>
<path d="M50.4023 64.8361C49.9354 64.8361 49.5444 64.7255 49.2294 64.5043C48.9144 64.283 48.6919 63.973 48.5619 63.5744C48.4341 63.1757 48.4132 62.7113 48.4991 62.1812C48.5828 61.6642 48.7491 61.214 48.9981 60.8307C49.2492 60.4451 49.5609 60.1472 49.9331 59.9369C50.3076 59.7244 50.7195 59.6182 51.1689 59.6182C51.6359 59.6182 52.0258 59.7299 52.3386 59.9533C52.6536 60.1746 52.8761 60.4856 53.006 60.8865C53.136 61.2852 53.158 61.7518 53.0721 62.2863C52.9884 62.7989 52.8199 63.2469 52.5666 63.6302C52.3155 64.0114 52.0038 64.3082 51.6315 64.5207C51.2614 64.731 50.8517 64.8361 50.4023 64.8361ZM50.4156 64.1395C50.7724 64.1395 51.0819 64.0486 51.344 63.8668C51.6084 63.685 51.822 63.4451 51.9851 63.1472C52.1503 62.8493 52.2615 62.5273 52.3188 62.1812C52.3716 61.8526 52.3694 61.547 52.3122 61.2644C52.2549 60.9796 52.1326 60.7507 51.9454 60.5777C51.7582 60.4024 51.4949 60.3148 51.1557 60.3148C50.7988 60.3148 50.4871 60.4068 50.2206 60.5908C49.9563 60.7748 49.7426 61.0169 49.5796 61.317C49.4166 61.6171 49.3076 61.9402 49.2525 62.2863C49.1996 62.6149 49.2007 62.9205 49.2558 63.2031C49.3131 63.4835 49.4353 63.7102 49.6226 63.8832C49.812 64.0541 50.0763 64.1395 50.4156 64.1395Z" fill="#FF8000"/>
<path d="M53.8594 64.731L54.7052 59.6839H55.4586L55.3264 60.4462H55.3793C55.5114 60.1965 55.713 59.9939 55.9839 59.8383C56.2549 59.6828 56.5424 59.605 56.8463 59.605C56.9058 59.605 56.9774 59.6061 57.0611 59.6083C57.1448 59.6083 57.2098 59.6116 57.2561 59.6182L57.1239 60.4068C57.0975 60.4002 57.038 60.3904 56.9455 60.3772C56.853 60.3619 56.7538 60.3542 56.6481 60.3542C56.4014 60.3542 56.1734 60.4057 55.9641 60.5086C55.7549 60.6094 55.5797 60.7496 55.4388 60.9292C55.2978 61.1067 55.2075 61.3093 55.1678 61.5371L54.6391 64.731H53.8594Z" fill="#FF8000"/>
<path d="M57.3395 64.731L58.1854 59.6839H58.9387L58.8066 60.4462H58.8594C58.9916 60.1965 59.1931 59.9939 59.4641 59.8383C59.735 59.6828 60.0225 59.605 60.3265 59.605C60.386 59.605 60.4576 59.6061 60.5413 59.6083C60.625 59.6083 60.6899 59.6116 60.7362 59.6182L60.604 60.4068C60.5776 60.4002 60.5181 60.3904 60.4256 60.3772C60.3331 60.3619 60.234 60.3542 60.1282 60.3542C59.8815 60.3542 59.6535 60.4057 59.4443 60.5086C59.235 60.6094 59.0599 60.7496 58.9189 60.9292C58.7779 61.1067 58.6876 61.3093 58.648 61.5371L58.1193 64.731H57.3395Z" fill="#FF8000"/>
<path d="M62.7798 64.8361C62.293 64.8361 61.891 64.7288 61.5738 64.5141C61.2566 64.2972 61.0352 63.9949 60.9097 63.6072C60.7841 63.2173 60.7643 62.7638 60.8502 62.2469C60.9361 61.7299 61.1068 61.2743 61.3623 60.88C61.6179 60.4835 61.9362 60.1746 62.3173 59.9533C62.6983 59.7299 63.1169 59.6182 63.5729 59.6182C63.8372 59.6182 64.0916 59.662 64.3361 59.7496C64.5806 59.8372 64.7921 59.9796 64.9705 60.1768C65.149 60.3717 65.2734 60.6302 65.3439 60.9522C65.4144 61.2743 65.41 61.6707 65.3307 62.1417L65.2778 62.4703H61.3657L61.4714 61.8H64.5905C64.6412 61.5152 64.628 61.2611 64.5509 61.0377C64.476 60.8142 64.3449 60.6379 64.1577 60.5086C63.9727 60.3794 63.7381 60.3148 63.4539 60.3148C63.1609 60.3148 62.8878 60.3936 62.6345 60.5514C62.3811 60.7069 62.1697 60.904 62.0001 61.1428C61.8304 61.3794 61.7247 61.6204 61.6829 61.8657L61.5903 62.444C61.5243 62.8624 61.5342 63.1954 61.6201 63.4429C61.7082 63.6905 61.8613 63.869 62.0794 63.9785C62.2974 64.0859 62.5706 64.1395 62.8988 64.1395C63.1081 64.1395 63.3008 64.1111 63.477 64.0541C63.6533 63.9949 63.8108 63.9073 63.9495 63.7912C64.0883 63.6729 64.2051 63.5262 64.2998 63.3509L65.0135 63.5612C64.8923 63.8153 64.7216 64.0388 64.5013 64.2315C64.2833 64.4221 64.0277 64.5711 63.7348 64.6784C63.444 64.7836 63.1257 64.8361 62.7798 64.8361Z" fill="#FF8000"/>
<path d="M69.152 59.6839L69.0462 60.3411H66.4161L66.5218 59.6839H69.152ZM67.4867 58.4747H68.2665L67.4602 63.2852C67.425 63.5043 67.4305 63.6686 67.4768 63.7781C67.5252 63.8854 67.5979 63.9577 67.6948 63.9949C67.794 64.03 67.9008 64.0475 68.0153 64.0475C68.1012 64.0475 68.1717 64.0431 68.2268 64.0344C68.2819 64.0234 68.3259 64.0147 68.359 64.0081L68.4118 64.7047C68.3524 64.7244 68.272 64.7441 68.1706 64.7638C68.0715 64.7857 67.9493 64.7967 67.8039 64.7967C67.5836 64.7967 67.3765 64.7496 67.1827 64.6554C66.9888 64.5612 66.8401 64.4177 66.7366 64.225C66.6331 64.0322 66.6055 63.789 66.654 63.4955L67.4867 58.4747Z" fill="#FF8000"/>
<path d="M71.5194 64.8361C71.0524 64.8361 70.6614 64.7255 70.3464 64.5043C70.0314 64.283 69.809 63.973 69.679 63.5744C69.5512 63.1757 69.5303 62.7113 69.6162 62.1812C69.6999 61.6642 69.8662 61.214 70.1152 60.8307C70.3663 60.4451 70.678 60.1472 71.0502 59.9369C71.4247 59.7244 71.8366 59.6182 72.286 59.6182C72.753 59.6182 73.1429 59.7299 73.4557 59.9533C73.7707 60.1746 73.9932 60.4856 74.1231 60.8865C74.2531 61.2852 74.2751 61.7518 74.1892 62.2863C74.1055 62.7989 73.937 63.2469 73.6837 63.6302C73.4326 64.0114 73.1209 64.3082 72.7486 64.5207C72.3785 64.731 71.9688 64.8361 71.5194 64.8361ZM71.5326 64.1395C71.8895 64.1395 72.199 64.0486 72.4611 63.8668C72.7255 63.685 72.9391 63.4451 73.1021 63.1472C73.2674 62.8493 73.3786 62.5273 73.4359 62.1812C73.4887 61.8526 73.4865 61.547 73.4293 61.2644C73.372 60.9796 73.2497 60.7507 73.0625 60.5777C72.8753 60.4024 72.612 60.3148 72.2728 60.3148C71.9159 60.3148 71.6042 60.4068 71.3377 60.5908C71.0734 60.7748 70.8597 61.0169 70.6967 61.317C70.5337 61.6171 70.4246 61.9402 70.3696 62.2863C70.3167 62.6149 70.3178 62.9205 70.3729 63.2031C70.4302 63.4835 70.5524 63.7102 70.7396 63.8832C70.9291 64.0541 71.1934 64.1395 71.5326 64.1395Z" fill="#FF8000"/>
<path d="M74.9764 64.731L75.8223 59.6839H76.5757L76.4435 60.4462H76.4964C76.6285 60.1965 76.8301 59.9939 77.101 59.8383C77.372 59.6828 77.6594 59.605 77.9634 59.605C78.0229 59.605 78.0945 59.6061 78.1782 59.6083C78.2619 59.6083 78.3269 59.6116 78.3732 59.6182L78.241 60.4068C78.2146 60.4002 78.1551 60.3904 78.0626 60.3772C77.97 60.3619 77.8709 60.3542 77.7652 60.3542C77.5185 60.3542 77.2905 60.4057 77.0812 60.5086C76.8719 60.6094 76.6968 60.7496 76.5558 60.9292C76.4149 61.1067 76.3246 61.3093 76.2849 61.5371L75.7562 64.731H74.9764Z" fill="#FF8000"/>
<path d="M79.9369 64.8493C79.6153 64.8493 79.3333 64.789 79.091 64.6686C78.8487 64.5459 78.6692 64.3695 78.5524 64.1395C78.4357 63.9073 78.4037 63.6269 78.4566 63.2983C78.5072 63.0092 78.6053 62.7748 78.7507 62.5952C78.896 62.4134 79.0723 62.271 79.2793 62.168C79.4886 62.0629 79.7133 61.9851 79.9534 61.9347C80.1957 61.8821 80.4369 61.8416 80.677 61.8131C80.9898 61.7737 81.2442 61.743 81.4403 61.7211C81.6363 61.6992 81.7839 61.6631 81.883 61.6127C81.9822 61.5623 82.0427 61.4758 82.0648 61.3531V61.3268C82.1176 61.0048 82.0747 60.754 81.9359 60.5744C81.7971 60.3925 81.5493 60.3016 81.1925 60.3016C80.8224 60.3016 80.5129 60.3827 80.264 60.5448C80.0151 60.7069 79.8311 60.88 79.7122 61.064L79.0249 60.8011C79.2055 60.4944 79.4214 60.2556 79.6725 60.0848C79.9236 59.9117 80.1869 59.7912 80.4622 59.7233C80.7376 59.6532 81.003 59.6182 81.2585 59.6182C81.4215 59.6182 81.6055 59.6379 81.8103 59.6773C82.0152 59.7146 82.2068 59.7923 82.3853 59.9106C82.5659 60.0289 82.7014 60.2074 82.7917 60.4462C82.8842 60.685 82.8974 61.0048 82.8313 61.4057L82.2762 64.731H81.4964L81.6154 64.0475H81.5757C81.5053 64.1571 81.3973 64.2742 81.2519 64.3991C81.1088 64.524 80.927 64.6302 80.7067 64.7178C80.4887 64.8055 80.232 64.8493 79.9369 64.8493ZM80.1616 64.1527C80.4699 64.1527 80.7398 64.0924 80.9711 63.9719C81.2046 63.8515 81.3918 63.6959 81.5328 63.5054C81.676 63.3148 81.7652 63.1143 81.8004 62.904L81.9194 62.1943C81.8797 62.2337 81.8015 62.2699 81.6848 62.3027C81.568 62.3334 81.4359 62.3608 81.2883 62.3849C81.1429 62.4068 81.0008 62.4265 80.862 62.444C80.7255 62.4594 80.6153 62.4725 80.5316 62.4835C80.3246 62.5097 80.1274 62.5525 79.9402 62.6116C79.7551 62.6686 79.5987 62.7551 79.471 62.8712C79.3454 62.9851 79.2672 63.1406 79.2364 63.3378C79.1901 63.6072 79.2551 63.8109 79.4313 63.9489C79.6075 64.0848 79.851 64.1527 80.1616 64.1527Z" fill="#FF8000"/>
</svg>
