<svg width="50" height="59" viewBox="0 0 50 59" fill="none" xmlns="http://www.w3.org/2000/svg">
<g id="Logo">
<path id="Vector" fill-rule="evenodd" clip-rule="evenodd" d="M42.1603 20.7801C42.742 17.5219 40.5699 14.9615 38.0477 13.0997C34.5181 10.5008 30.5232 8.9492 26.4112 7.74667V50.7265C28.2343 49.1364 30.0577 47.3519 31.8027 45.5285C35.5268 41.4169 38.9794 37.2276 40.4142 32.1845C40.9959 29.8963 40.686 27.2971 38.7462 25.7455C40.4146 24.4265 41.927 22.7972 42.1603 20.7801ZM35.0613 35.6368C33.7811 37.9642 32.0357 40.0979 29.9791 42.0759L29.9406 29.7792C31.3372 28.7707 32.772 27.8785 34.5181 27.7232C35.2165 27.7232 35.8371 27.9558 36.3023 28.499C37.8545 30.9429 36.0309 33.5032 35.0613 35.6368ZM38.5915 19.8102C38.2421 21.7497 36.1085 22.8745 34.5957 23.6892C33.0829 24.465 31.531 25.0855 29.9406 25.6672V13.0993C32.3851 13.8363 34.5957 15.0777 36.6902 16.552C37.6604 17.3666 38.9794 18.375 38.5915 19.8102ZM23.2304 50.416V7.59106L19.7781 9.37561V32.3398C19.6231 32.9988 20.0883 34.0076 19.3514 34.3178C19.1573 34.3567 19.0023 34.2793 18.9246 34.1244C17.4507 28.5769 16.8298 22.7199 16.5584 16.7073L16.4419 11.4704L13.1449 13.9143V15.3106C13.3387 20.858 13.7269 26.2883 14.7742 31.4864L13.4555 32.9607C12.9511 32.2625 12.6409 31.5252 12.2915 30.7882C10.6237 26.3663 10.0029 21.5174 9.77026 16.5135L6.89966 18.6471C7.17141 26.2502 8.60656 33.4262 13.2226 39.1283C14.1148 38.1199 15.0071 37.0723 15.8994 36.1027C16.3649 38.1587 17.0243 40.137 17.8001 42.0762C19.0796 45.063 20.5151 48.0885 23.2304 50.416Z" fill="white"/>
<path id="Vector_2" fill-rule="evenodd" clip-rule="evenodd" d="M49.6463 13.2158L44.4871 11.936L43.556 8.44483L38.2806 7.20348L37.1949 3.4021L24.7432 0.570312L12.5241 3.40178L11.438 7.20316L6.16235 8.44451C5.81327 9.64672 5.50301 10.8107 5.19244 11.9745L0.0332375 13.2155C-0.354665 24.1932 2.67123 33.852 8.14069 42.4635C12.1362 48.6311 18.1488 55.1481 24.7432 58.3675C29.2036 56.2338 33.1609 52.6651 36.7293 48.6696C45.3796 38.6624 50.1118 26.9477 49.6463 13.2158ZM34.4404 46.4208C31.6089 49.6016 28.4278 52.7434 24.8593 54.5667C21.4458 52.8598 18.4591 49.9119 15.7438 46.9248C8.68388 38.6624 3.99022 29.4304 3.21442 18.6079C3.13678 17.7157 3.09827 16.8625 3.13678 15.9314L7.52017 14.923L8.52859 11.3154L13.9207 10.0356L13.9595 9.91911L14.9291 6.19506L24.7043 3.90647L34.7898 6.19506L35.7594 9.99644L41.2292 11.3154L42.1603 14.923L46.5822 15.9314C46.4654 27.7235 41.7717 37.6152 34.4404 46.4208Z" fill="white"/>
</g>
</svg>
