<svg width="31" height="30" viewBox="0 0 31 30" fill="none" xmlns="http://www.w3.org/2000/svg">
<path fill-rule="evenodd" clip-rule="evenodd" d="M15.1503 30C23.4694 30 30.2133 23.2843 30.2133 15C30.2133 6.71573 23.4694 0 15.1503 0C6.83131 0 0.0874023 6.71573 0.0874023 15C0.0874023 16.528 0.316838 18.0027 0.743274 19.3917C0.852093 19.4112 1.02803 19.4558 1.2844 19.5306L0.884073 13.258C0.884073 13.1431 1.07883 13.0878 1.25726 13.0371C1.35519 13.0093 1.4482 12.9829 1.5014 12.9488C1.64668 12.8573 4.63832 13.9451 4.79812 14.0173L8.62373 15.7406C9.61161 15.1196 10.7932 14.8693 11.9554 15.0378L15.4323 10.8163C15.4759 7.44684 18.2362 4.732 21.6308 4.72718C24.8027 4.76088 27.4322 7.16765 27.7324 10.3013C28.052 13.69 25.5533 16.6937 22.1441 17.0162L16.3524 21.1317C15.9989 22.9368 14.7011 24.4146 12.9481 25.0018C10.2605 25.9068 7.34046 24.4723 6.4349 21.796L4.4204 21.1317C4.27104 21.0845 1.52959 19.9488 0.787024 19.5317C2.71624 25.601 8.41741 30 15.1503 30ZM24.7303 10.8884C24.7303 12.5898 23.3427 13.9691 21.631 13.9691C19.9193 13.9691 18.5317 12.5898 18.5317 10.8884C18.5317 9.18703 19.9193 7.80776 21.631 7.80776C23.3427 7.80776 24.7303 9.18703 24.7303 10.8884ZM23.6993 10.8885C23.6993 12.0236 22.7735 12.9438 21.6315 12.9438C20.4895 12.9438 19.5637 12.0236 19.5637 10.8885C19.5637 9.75329 20.4895 8.83307 21.6315 8.83307C22.7735 8.83307 23.6993 9.75329 23.6993 10.8885ZM9.95616 22.9031C10.3726 23.1053 10.8326 23.2112 11.2975 23.2112C11.651 23.2112 11.9948 23.1534 12.3338 23.0427C13.1134 22.7732 13.7478 22.21 14.1061 21.4735C14.8519 19.938 14.203 18.0992 12.6631 17.3579C12.4016 17.2328 12.0965 17.3387 11.9706 17.5938C11.8447 17.8537 11.9512 18.157 12.2079 18.2821C12.2418 18.2966 12.2757 18.311 12.3096 18.3303C13.3265 18.8501 13.7187 20.0872 13.1957 21.0981C12.6728 22.1089 11.4234 22.4988 10.4113 21.9789C10.1499 21.8538 9.84478 21.9597 9.71888 22.2148C9.59297 22.4747 9.69951 22.778 9.95616 22.9031Z" fill="#F2C41F"/>
</svg>
