<svg width="31" height="31" viewBox="0 0 31 31" fill="none" xmlns="http://www.w3.org/2000/svg">
<path d="M9.92733 2.65332C11.5116 3.27454 13.043 4.09501 14.4864 5.09716C14.6507 5.20851 14.8384 5.26711 15.0262 5.26711C15.2139 5.26711 15.4017 5.20851 15.566 5.09716C17.0094 4.09501 18.5408 3.26868 20.1251 2.64746C20.483 2.50681 20.7235 2.15518 20.7177 1.76838C20.7177 1.38159 20.4771 1.03582 20.1133 0.901025C16.9449 -0.300382 13.1075 -0.300382 9.94493 0.901025C9.58701 1.03582 9.34058 1.38745 9.34058 1.76838C9.34058 2.14932 9.56354 2.51267 9.92733 2.65332Z" fill="#F2C41F"/>
<path d="M23.5347 2.65864C23.2354 2.45352 22.854 2.43594 22.5313 2.61762C20.7769 3.62563 19.0812 4.78015 17.4794 6.05188C17.2681 6.22184 17.1391 6.47384 17.1273 6.74342C17.1156 7.01301 17.2212 7.27673 17.4148 7.46427C20.7358 10.6231 25.336 20.3105 26.3921 24.7645C24.1038 20.8966 18.9991 11.7952 15.6604 8.68325C15.3025 8.3492 14.7392 8.3492 14.3813 8.68325C11.0368 11.7952 5.94967 20.9024 3.66134 24.7762C4.71749 20.3222 9.3059 10.6231 12.6269 7.46427C12.8264 7.27673 12.932 7.01301 12.9203 6.74342C12.9086 6.47384 12.7795 6.22184 12.5682 6.05188C10.9664 4.78015 9.26483 3.62563 7.5163 2.61762C7.20533 2.43594 6.8122 2.45352 6.51296 2.65864C2.43502 5.46583 0 10.0781 0 15.0009C0 18.5993 1.29672 22.0687 3.66134 24.7762C6.48949 28.0933 10.6261 30.0038 15.0209 30.0038C19.4157 30.0038 23.5581 28.0992 26.3921 24.7704C28.745 22.0745 30.0417 18.6051 30.0417 15.0009C30.0417 10.0781 27.6067 5.46583 23.5347 2.65864Z" fill="#F2C41F"/>
</svg>
